<?xml version="1.0" encoding="UTF-8"?><svg id="Capa_1" xmlns="http://www.w3.org/2000/svg" viewBox="0 0 1080 1080"><defs><style>.cls-1{fill:#122f4a;}</style></defs><path class="cls-1" d="M979.83,540c0-242.48-197.34-439.83-439.83-439.83S100.17,297.52,100.17,540c0,128.07,55.06,243.58,142.76,324.01l-.4.4,14.21,12.02c.94.78,1.96,1.4,2.9,2.2,7.56,6.24,15.45,12.18,23.41,17.95,2.58,1.88,5.16,3.74,7.82,5.62,8.6,5.86,17.33,11.48,26.31,16.71,1.96,1.18,3.92,2.26,5.86,3.44,9.78,5.54,19.85,10.86,30.07,15.61.78.4,1.5.7,2.28,1.1,33.43,15.45,69.11,26.87,106.36,33.67,1.02.14,1.96.3,2.96.46,11.56,2.04,23.27,3.6,35.15,4.68,1.4.16,2.9.24,4.3.4,11.8.94,23.75,1.56,35.85,1.56s23.81-.62,35.53-1.56c1.5-.16,2.98-.24,4.46-.32,11.8-1.08,23.35-2.66,34.83-4.6,1.02-.16,2.04-.4,3.06-.56,36.69-6.56,71.83-17.71,104.8-32.87,1.24-.54,2.5-1.1,3.66-1.64,9.92-4.68,19.53-9.68,28.99-14.99,2.34-1.34,4.68-2.66,7.02-4.06,8.6-5.08,17.11-10.32,25.31-16.01,2.96-1.96,5.86-4.14,8.74-6.26,7.04-5,13.97-10.22,20.61-15.69,1.5-1.16,3.14-2.26,4.62-3.44l14.59-12.26-.46-.38c88.49-80.45,144.08-196.42,144.08-325.19h0ZM779.29,869.95c-5.62,4.06-11.34,8.04-17.11,11.8-2.66,1.72-5.3,3.44-7.96,5.16-7.58,4.68-15.23,9.06-23.11,13.27-1.72.86-3.44,1.72-5.16,2.64-18.05,9.22-36.71,17.19-55.84,23.59-.62.24-1.34.48-2.04.7-10,3.36-20.15,6.26-30.45,8.84h-.08c-10.4,2.58-20.85,4.68-31.39,6.48-.32,0-.64.08-.86.16-9.92,1.56-19.99,2.72-29.99,3.66-1.8.16-3.6.24-5.4.4-9.92.7-19.91,1.16-29.91,1.16s-20.23-.46-30.31-1.24c-1.72-.08-3.5-.24-5.22-.4-10.16-.86-20.23-2.1-30.23-3.66l-1.32-.24c-21.17-3.6-41.94-8.74-62.26-15.53-.62-.24-1.24-.48-1.86-.7-10.08-3.36-19.99-7.2-29.77-11.42-.08,0-.16,0-.22-.08-9.22-3.98-18.29-8.36-27.27-13.03-1.16-.62-2.34-1.18-3.52-1.8-8.2-4.38-16.15-9.06-24.05-13.97-2.34-1.48-4.68-2.96-6.94-4.54-7.28-4.68-14.45-9.68-21.41-14.91-.7-.54-1.4-1.08-2.1-1.64l1.48-.86,126.51-68.95c21.71-11.88,35.23-34.67,35.23-59.44v-57.62l-3.68-4.46c-.38-.4-34.91-42.4-48.02-99.42l-1.4-6.32-5.48-3.52c-7.72-5-12.34-13.27-12.34-22.25v-56.7c0-7.42,3.2-14.37,8.9-19.61l5.32-4.76v-89.02l-.16-2.1c0-.4-4.76-38.9,22.33-69.75,23.13-26.39,62.8-39.74,117.77-39.74s94.34,13.27,117.45,39.44c27.09,30.53,22.65,69.73,22.65,70.05l-.16,91.2,5.32,4.76c5.7,5.16,8.9,12.12,8.9,19.53v56.7c0,11.4-7.82,21.79-18.89,25.23l-7.98,2.42-2.58,7.96c-9.44,29.29-22.87,56.38-39.9,80.45-4.22,5.92-8.28,11.16-11.8,15.21l-3.9,4.46v59.2c0,25.77,14.29,48.96,37.33,60.52l135.43,67.71c.86.38,1.72.86,2.58,1.32-1.72,1.26-3.44,2.42-5.16,3.68h0ZM779.29,869.95"/></svg>