<?xml version="1.0" standalone="no"?>
<!DOCTYPE svg PUBLIC "-//W3C//DTD SVG 20010904//EN"
 "http://www.w3.org/TR/2001/REC-SVG-20010904/DTD/svg10.dtd">
<svg version="1.0" xmlns="http://www.w3.org/2000/svg"
 width="568.000000pt" height="567.000000pt" viewBox="0 0 568.000000 567.000000"
 preserveAspectRatio="xMidYMid meet">

<g transform="translate(0.000000,567.000000) scale(0.100000,-0.100000)"
fill="#000000" stroke="none">
<path d="M1100 2916 l0 -546 333 0 c189 0 359 5 393 11 260 46 446 193 499
394 19 76 19 204 0 280 -36 138 -136 255 -276 324 -151 74 -159 75 -576 79
l-373 3 0 -545z m741 306 c76 -30 142 -90 176 -160 24 -50 28 -69 28 -147 0
-78 -4 -97 -28 -147 -31 -64 -75 -107 -145 -142 -72 -36 -139 -46 -317 -46
l-165 0 0 336 0 336 198 -4 c176 -3 203 -6 253 -26z"/>
<path d="M2450 3360 l0 -100 255 0 c140 0 255 -3 255 -8 0 -4 -54 -61 -120
-127 l-120 -120 0 -81 0 -81 113 -6 c126 -7 170 -18 209 -55 37 -34 45 -80 22
-127 -51 -108 -298 -120 -503 -24 -35 16 -65 28 -67 27 -8 -9 -104 -181 -104
-187 0 -13 132 -70 216 -93 109 -30 378 -33 469 -5 132 41 218 107 265 202 36
74 35 190 -2 261 -45 85 -130 145 -251 175 l-49 12 136 136 136 136 0 83 0 82
-430 0 -430 0 0 -100z"/>
<path d="M3570 2915 l0 -545 145 0 145 0 0 150 0 150 169 0 c108 0 198 5 248
15 164 31 296 127 342 250 19 50 22 75 19 150 -3 79 -8 98 -38 153 -55 104
-143 166 -288 203 -67 17 -112 19 -409 19 l-333 0 0 -545z m689 305 c63 -35
84 -69 89 -138 5 -64 -10 -104 -51 -142 -47 -46 -83 -53 -264 -58 l-173 -4 0
187 0 187 178 -4 c167 -3 179 -4 221 -28z"/>
</g>
</svg>
